<svg xmlns="http://www.w3.org/2000/svg" viewBox="0 0 512 512">
  <defs>
    <linearGradient id="hg" x1="0%" y1="0%" x2="100%" y2="100%">
      <stop offset="0%" stop-color="#ec4899"/>
      <stop offset="45%" stop-color="#a855f7"/>
      <stop offset="100%" stop-color="#8b5cf6"/>
    </linearGradient>
    <linearGradient id="flame" x1="50%" y1="100%" x2="50%" y2="0%">
      <stop offset="0%" stop-color="#fbbf24"/>
      <stop offset="55%" stop-color="#ec4899"/>
      <stop offset="100%" stop-color="#c026d3"/>
    </linearGradient>
  </defs>
  <rect width="512" height="512" rx="112" fill="#07070c"/>
  <!-- Energy H left/right stems -->
  <path fill="url(#hg)" d="M96 88h88v128h144V88h88v336h-88V280H184v144H96V88z"/>
  <!-- Flame between stems -->
  <path fill="url(#flame)" d="M256 168c18 36 64 48 64 104 0 48-28 80-64 80s-64-32-64-80c0-40 28-58 40-78 10-16 16-20 24-26z"/>
  <path fill="#fde68a" opacity="0.95" d="M256 220c10 18 32 24 32 52 0 24-14 40-32 40s-32-16-32-40c0-20 14-28 20-38 4-6 8-10 12-14z"/>
</svg>
